<svg xmlns="http://www.w3.org/2000/svg" viewBox="0 0 1024 1024">
<g fill="#173B5C" fill-rule="evenodd">
  <path d="M 834.0 544.0 L 834.0 573.0 L 852.0 573.0 L 852.0 568.0 L 840.0 568.0 L 839.0 567.0 L 839.0 561.0 L 840.0 560.0 L 850.0 560.0 L 850.0 556.0 L 840.0 556.0 L 839.0 555.0 L 839.0 549.0 L 840.0 548.0 L 852.0 548.0 L 852.0 544.0 Z" />
  <path d="M 766.0 544.0 L 766.0 572.0 L 767.0 573.0 L 768.0 572.0 L 770.0 572.0 L 771.0 573.0 L 772.0 572.0 L 772.0 562.0 L 773.0 561.0 L 776.0 561.0 L 778.0 563.0 L 778.0 564.0 L 780.0 566.0 L 780.0 567.0 L 781.0 568.0 L 781.0 569.0 L 782.0 570.0 L 782.0 571.0 L 783.0 572.0 L 783.0 573.0 L 789.0 573.0 L 789.0 572.0 L 788.0 571.0 L 788.0 570.0 L 787.0 569.0 L 787.0 568.0 L 786.0 567.0 L 786.0 566.0 L 785.0 565.0 L 785.0 564.0 L 783.0 562.0 L 783.0 561.0 L 784.0 560.0 L 785.0 560.0 L 787.0 558.0 L 787.0 557.0 L 788.0 556.0 L 788.0 549.0 L 787.0 548.0 L 787.0 547.0 L 785.0 545.0 L 784.0 545.0 L 783.0 544.0 Z M 772.0 549.0 L 773.0 548.0 L 779.0 548.0 L 780.0 549.0 L 781.0 549.0 L 783.0 551.0 L 783.0 554.0 L 780.0 557.0 L 773.0 557.0 L 772.0 556.0 Z" />
  <path d="M 730.0 544.0 L 730.0 565.0 L 731.0 566.0 L 731.0 568.0 L 732.0 569.0 L 732.0 570.0 L 733.0 571.0 L 734.0 571.0 L 735.0 572.0 L 736.0 572.0 L 737.0 573.0 L 747.0 573.0 L 748.0 572.0 L 749.0 572.0 L 750.0 571.0 L 751.0 571.0 L 753.0 569.0 L 753.0 568.0 L 754.0 567.0 L 754.0 544.0 L 749.0 544.0 L 749.0 564.0 L 748.0 565.0 L 748.0 566.0 L 746.0 568.0 L 743.0 568.0 L 742.0 569.0 L 741.0 568.0 L 739.0 568.0 L 736.0 565.0 L 736.0 563.0 L 735.0 562.0 L 736.0 561.0 L 736.0 558.0 L 735.0 557.0 L 736.0 556.0 L 736.0 552.0 L 735.0 551.0 L 736.0 550.0 L 736.0 548.0 L 735.0 547.0 L 736.0 546.0 L 736.0 544.0 Z" />
  <path d="M 632.0 544.0 L 632.0 547.0 L 633.0 548.0 L 633.0 550.0 L 632.0 551.0 L 632.0 559.0 L 633.0 560.0 L 633.0 566.0 L 632.0 567.0 L 633.0 568.0 L 632.0 569.0 L 632.0 570.0 L 633.0 571.0 L 632.0 572.0 L 633.0 573.0 L 651.0 573.0 L 652.0 572.0 L 651.0 571.0 L 651.0 569.0 L 652.0 568.0 L 639.0 568.0 L 638.0 567.0 L 638.0 561.0 L 639.0 560.0 L 649.0 560.0 L 649.0 556.0 L 639.0 556.0 L 638.0 555.0 L 638.0 549.0 L 639.0 548.0 L 652.0 548.0 L 651.0 547.0 L 652.0 546.0 L 652.0 544.0 Z" />
  <path d="M 598.0 544.0 L 598.0 572.0 L 599.0 573.0 L 604.0 573.0 L 604.0 562.0 L 605.0 561.0 L 608.0 561.0 L 611.0 564.0 L 611.0 565.0 L 612.0 566.0 L 612.0 567.0 L 613.0 568.0 L 613.0 569.0 L 614.0 570.0 L 614.0 571.0 L 616.0 573.0 L 621.0 573.0 L 621.0 571.0 L 619.0 569.0 L 619.0 568.0 L 618.0 567.0 L 618.0 566.0 L 617.0 565.0 L 617.0 564.0 L 616.0 563.0 L 616.0 562.0 L 615.0 561.0 L 616.0 560.0 L 617.0 560.0 L 620.0 557.0 L 620.0 554.0 L 621.0 553.0 L 621.0 552.0 L 620.0 551.0 L 620.0 548.0 L 617.0 545.0 L 615.0 545.0 L 614.0 544.0 Z M 604.0 549.0 L 605.0 548.0 L 611.0 548.0 L 612.0 549.0 L 613.0 549.0 L 615.0 551.0 L 615.0 554.0 L 612.0 557.0 L 605.0 557.0 L 604.0 556.0 Z" />
  <path d="M 553.0 544.0 L 553.0 573.0 L 572.0 573.0 L 572.0 568.0 L 559.0 568.0 L 558.0 567.0 L 558.0 545.0 L 559.0 544.0 Z" />
  <path d="M 526.0 544.0 L 526.0 545.0 L 525.0 546.0 L 525.0 547.0 L 524.0 548.0 L 524.0 550.0 L 523.0 551.0 L 523.0 553.0 L 522.0 554.0 L 522.0 556.0 L 521.0 557.0 L 521.0 559.0 L 520.0 560.0 L 520.0 562.0 L 519.0 563.0 L 519.0 565.0 L 518.0 566.0 L 518.0 568.0 L 517.0 569.0 L 517.0 571.0 L 516.0 572.0 L 517.0 573.0 L 518.0 572.0 L 520.0 572.0 L 521.0 573.0 L 522.0 572.0 L 522.0 570.0 L 523.0 569.0 L 523.0 568.0 L 524.0 567.0 L 534.0 567.0 L 536.0 569.0 L 536.0 571.0 L 537.0 572.0 L 537.0 573.0 L 542.0 573.0 L 543.0 572.0 L 542.0 571.0 L 542.0 570.0 L 541.0 569.0 L 541.0 567.0 L 540.0 566.0 L 540.0 564.0 L 539.0 563.0 L 539.0 561.0 L 538.0 560.0 L 538.0 558.0 L 537.0 557.0 L 537.0 555.0 L 536.0 554.0 L 536.0 552.0 L 535.0 551.0 L 535.0 549.0 L 534.0 548.0 L 534.0 546.0 L 533.0 545.0 L 533.0 544.0 Z M 529.0 550.0 L 530.0 551.0 L 530.0 553.0 L 531.0 554.0 L 531.0 557.0 L 532.0 558.0 L 532.0 560.0 L 533.0 561.0 L 532.0 562.0 L 526.0 562.0 L 525.0 561.0 L 526.0 560.0 L 526.0 557.0 L 527.0 556.0 L 527.0 554.0 L 528.0 553.0 L 528.0 551.0 Z" />
  <path d="M 486.0 544.0 L 486.0 573.0 L 493.0 573.0 L 494.0 572.0 L 503.0 572.0 L 504.0 571.0 L 505.0 571.0 L 507.0 569.0 L 507.0 568.0 L 508.0 567.0 L 508.0 562.0 L 507.0 561.0 L 507.0 560.0 L 505.0 558.0 L 505.0 557.0 L 507.0 555.0 L 507.0 551.0 L 508.0 550.0 L 507.0 549.0 L 507.0 548.0 L 506.0 547.0 L 506.0 546.0 L 505.0 546.0 L 504.0 545.0 L 503.0 545.0 L 502.0 544.0 Z M 491.0 560.0 L 492.0 559.0 L 498.0 559.0 L 499.0 560.0 L 500.0 560.0 L 502.0 562.0 L 502.0 566.0 L 500.0 568.0 L 491.0 568.0 L 490.0 567.0 L 491.0 566.0 Z M 490.0 550.0 L 492.0 548.0 L 498.0 548.0 L 499.0 549.0 L 500.0 549.0 L 502.0 551.0 L 502.0 553.0 L 500.0 555.0 L 499.0 555.0 L 498.0 556.0 L 497.0 555.0 L 493.0 555.0 L 492.0 556.0 L 490.0 554.0 L 491.0 553.0 L 491.0 551.0 Z" />
  <path d="M 421.0 544.0 L 421.0 573.0 L 439.0 573.0 L 440.0 572.0 L 440.0 568.0 L 427.0 568.0 L 426.0 567.0 L 426.0 544.0 Z" />
  <path d="M 871.0 543.0 L 870.0 544.0 L 868.0 544.0 L 864.0 548.0 L 864.0 555.0 L 868.0 559.0 L 870.0 559.0 L 871.0 560.0 L 873.0 560.0 L 874.0 561.0 L 876.0 561.0 L 877.0 562.0 L 878.0 562.0 L 880.0 564.0 L 880.0 565.0 L 879.0 566.0 L 879.0 567.0 L 878.0 568.0 L 877.0 568.0 L 876.0 569.0 L 872.0 569.0 L 871.0 568.0 L 870.0 568.0 L 868.0 566.0 L 868.0 565.0 L 863.0 565.0 L 863.0 568.0 L 864.0 569.0 L 864.0 570.0 L 866.0 572.0 L 868.0 572.0 L 869.0 573.0 L 879.0 573.0 L 880.0 572.0 L 881.0 572.0 L 882.0 571.0 L 883.0 571.0 L 884.0 570.0 L 884.0 569.0 L 885.0 568.0 L 885.0 561.0 L 881.0 557.0 L 880.0 557.0 L 879.0 556.0 L 876.0 556.0 L 875.0 555.0 L 873.0 555.0 L 872.0 554.0 L 871.0 554.0 L 869.0 552.0 L 869.0 551.0 L 870.0 550.0 L 870.0 549.0 L 871.0 548.0 L 877.0 548.0 L 879.0 550.0 L 879.0 552.0 L 884.0 552.0 L 885.0 551.0 L 884.0 550.0 L 884.0 547.0 L 881.0 544.0 L 878.0 544.0 L 877.0 543.0 Z" />
  <path d="M 808.0 543.0 L 807.0 544.0 L 805.0 544.0 L 804.0 545.0 L 803.0 545.0 L 800.0 548.0 L 800.0 550.0 L 799.0 551.0 L 799.0 565.0 L 800.0 566.0 L 800.0 568.0 L 802.0 570.0 L 802.0 571.0 L 803.0 571.0 L 804.0 572.0 L 806.0 572.0 L 807.0 573.0 L 815.0 573.0 L 816.0 572.0 L 818.0 572.0 L 821.0 569.0 L 821.0 568.0 L 822.0 567.0 L 822.0 564.0 L 823.0 563.0 L 817.0 563.0 L 817.0 566.0 L 815.0 568.0 L 814.0 568.0 L 813.0 569.0 L 810.0 569.0 L 809.0 568.0 L 808.0 568.0 L 805.0 565.0 L 805.0 564.0 L 804.0 563.0 L 804.0 554.0 L 805.0 553.0 L 805.0 551.0 L 808.0 548.0 L 814.0 548.0 L 816.0 550.0 L 816.0 551.0 L 817.0 552.0 L 817.0 554.0 L 822.0 554.0 L 822.0 550.0 L 821.0 549.0 L 821.0 548.0 L 820.0 547.0 L 820.0 546.0 L 819.0 545.0 L 818.0 545.0 L 817.0 544.0 L 815.0 544.0 L 814.0 543.0 Z" />
  <path d="M 703.0 543.0 L 702.0 544.0 L 700.0 544.0 L 699.0 545.0 L 698.0 545.0 L 695.0 548.0 L 695.0 550.0 L 694.0 551.0 L 694.0 566.0 L 695.0 567.0 L 695.0 568.0 L 696.0 569.0 L 696.0 570.0 L 697.0 571.0 L 698.0 571.0 L 699.0 572.0 L 700.0 572.0 L 701.0 573.0 L 711.0 573.0 L 712.0 572.0 L 714.0 572.0 L 717.0 569.0 L 717.0 568.0 L 718.0 567.0 L 718.0 564.0 L 719.0 563.0 L 719.0 555.0 L 718.0 554.0 L 718.0 550.0 L 717.0 549.0 L 717.0 548.0 L 716.0 547.0 L 716.0 546.0 L 715.0 546.0 L 713.0 544.0 L 710.0 544.0 L 709.0 543.0 Z M 703.0 548.0 L 709.0 548.0 L 713.0 552.0 L 713.0 565.0 L 710.0 568.0 L 709.0 568.0 L 708.0 569.0 L 705.0 569.0 L 704.0 568.0 L 703.0 568.0 L 699.0 564.0 L 699.0 553.0 L 700.0 552.0 L 700.0 551.0 Z" />
  <path d="M 670.0 543.0 L 669.0 544.0 L 667.0 544.0 L 666.0 545.0 L 665.0 545.0 L 664.0 546.0 L 664.0 547.0 L 663.0 548.0 L 663.0 555.0 L 664.0 556.0 L 664.0 557.0 L 665.0 558.0 L 666.0 558.0 L 667.0 559.0 L 669.0 559.0 L 670.0 560.0 L 672.0 560.0 L 673.0 561.0 L 675.0 561.0 L 676.0 562.0 L 677.0 562.0 L 679.0 564.0 L 679.0 565.0 L 678.0 566.0 L 678.0 567.0 L 677.0 568.0 L 676.0 568.0 L 675.0 569.0 L 670.0 569.0 L 667.0 566.0 L 667.0 565.0 L 662.0 565.0 L 662.0 568.0 L 663.0 569.0 L 663.0 570.0 L 665.0 572.0 L 667.0 572.0 L 668.0 573.0 L 678.0 573.0 L 679.0 572.0 L 680.0 572.0 L 681.0 571.0 L 682.0 571.0 L 682.0 570.0 L 683.0 569.0 L 683.0 568.0 L 684.0 567.0 L 684.0 561.0 L 680.0 557.0 L 678.0 557.0 L 677.0 556.0 L 675.0 556.0 L 674.0 555.0 L 672.0 555.0 L 671.0 554.0 L 670.0 554.0 L 668.0 552.0 L 668.0 550.0 L 670.0 548.0 L 676.0 548.0 L 678.0 550.0 L 678.0 551.0 L 679.0 551.0 L 680.0 552.0 L 683.0 552.0 L 683.0 548.0 L 682.0 547.0 L 682.0 546.0 L 680.0 544.0 L 677.0 544.0 L 676.0 543.0 Z" />
  <path d="M 453.0 545.0 L 452.0 546.0 L 452.0 547.0 L 450.0 549.0 L 450.0 552.0 L 449.0 553.0 L 449.0 565.0 L 450.0 566.0 L 450.0 567.0 L 451.0 568.0 L 451.0 569.0 L 454.0 572.0 L 455.0 572.0 L 456.0 573.0 L 467.0 573.0 L 468.0 572.0 L 469.0 572.0 L 473.0 568.0 L 473.0 566.0 L 474.0 565.0 L 474.0 551.0 L 473.0 550.0 L 473.0 549.0 L 472.0 548.0 L 472.0 547.0 L 470.0 545.0 L 469.0 545.0 L 468.0 544.0 L 465.0 544.0 L 464.0 543.0 L 459.0 543.0 L 458.0 544.0 L 456.0 544.0 L 455.0 545.0 Z M 459.0 548.0 L 465.0 548.0 L 468.0 551.0 L 468.0 552.0 L 469.0 553.0 L 469.0 562.0 L 468.0 563.0 L 468.0 565.0 L 465.0 568.0 L 464.0 568.0 L 463.0 569.0 L 460.0 569.0 L 459.0 568.0 L 458.0 568.0 L 455.0 565.0 L 455.0 563.0 L 454.0 562.0 L 455.0 561.0 L 455.0 556.0 L 454.0 555.0 L 454.0 554.0 L 455.0 553.0 L 455.0 552.0 L 456.0 551.0 L 456.0 550.0 L 457.0 549.0 L 458.0 549.0 Z" />
  <path d="M 395.0 543.0 L 394.0 544.0 L 392.0 544.0 L 391.0 545.0 L 390.0 545.0 L 388.0 547.0 L 388.0 548.0 L 387.0 549.0 L 387.0 550.0 L 386.0 551.0 L 386.0 565.0 L 387.0 566.0 L 387.0 568.0 L 391.0 572.0 L 392.0 572.0 L 393.0 573.0 L 403.0 573.0 L 404.0 572.0 L 406.0 572.0 L 408.0 570.0 L 408.0 569.0 L 409.0 568.0 L 409.0 564.0 L 410.0 563.0 L 410.0 558.0 L 399.0 558.0 L 399.0 562.0 L 404.0 562.0 L 405.0 563.0 L 405.0 564.0 L 404.0 565.0 L 404.0 566.0 L 401.0 569.0 L 397.0 569.0 L 396.0 568.0 L 395.0 568.0 L 392.0 565.0 L 392.0 564.0 L 391.0 563.0 L 391.0 554.0 L 392.0 553.0 L 392.0 551.0 L 395.0 548.0 L 401.0 548.0 L 404.0 551.0 L 404.0 553.0 L 409.0 553.0 L 409.0 549.0 L 408.0 548.0 L 408.0 547.0 L 406.0 545.0 L 405.0 545.0 L 404.0 544.0 L 403.0 544.0 L 402.0 543.0 Z" />
  <path d="M 883.0 445.0 L 883.0 446.0 L 882.0 447.0 L 882.0 449.0 L 881.0 450.0 L 881.0 452.0 L 880.0 453.0 L 880.0 455.0 L 879.0 456.0 L 879.0 459.0 L 878.0 460.0 L 878.0 462.0 L 877.0 463.0 L 877.0 465.0 L 876.0 466.0 L 876.0 468.0 L 875.0 469.0 L 875.0 471.0 L 874.0 472.0 L 874.0 474.0 L 873.0 475.0 L 873.0 477.0 L 872.0 478.0 L 872.0 480.0 L 871.0 481.0 L 871.0 483.0 L 870.0 484.0 L 870.0 486.0 L 869.0 487.0 L 869.0 489.0 L 868.0 490.0 L 868.0 492.0 L 867.0 493.0 L 867.0 495.0 L 866.0 496.0 L 866.0 498.0 L 865.0 499.0 L 865.0 502.0 L 864.0 503.0 L 864.0 505.0 L 863.0 506.0 L 863.0 507.0 L 875.0 507.0 L 875.0 505.0 L 876.0 504.0 L 876.0 502.0 L 877.0 501.0 L 877.0 499.0 L 878.0 498.0 L 878.0 495.0 L 879.0 494.0 L 900.0 494.0 L 902.0 496.0 L 902.0 498.0 L 904.0 501.0 L 904.0 503.0 L 905.0 504.0 L 905.0 506.0 L 906.0 507.0 L 918.0 507.0 L 918.0 505.0 L 917.0 504.0 L 917.0 502.0 L 916.0 501.0 L 916.0 499.0 L 915.0 498.0 L 915.0 495.0 L 913.0 492.0 L 913.0 489.0 L 912.0 488.0 L 912.0 486.0 L 911.0 485.0 L 911.0 483.0 L 910.0 482.0 L 910.0 480.0 L 909.0 479.0 L 909.0 477.0 L 908.0 476.0 L 908.0 474.0 L 907.0 473.0 L 907.0 471.0 L 906.0 470.0 L 906.0 468.0 L 905.0 467.0 L 905.0 465.0 L 904.0 464.0 L 904.0 462.0 L 903.0 461.0 L 903.0 459.0 L 902.0 458.0 L 902.0 456.0 L 901.0 455.0 L 901.0 453.0 L 900.0 452.0 L 900.0 450.0 L 899.0 449.0 L 899.0 446.0 L 898.0 445.0 Z M 890.0 460.0 L 891.0 461.0 L 891.0 463.0 L 892.0 464.0 L 892.0 467.0 L 893.0 468.0 L 893.0 470.0 L 894.0 471.0 L 894.0 473.0 L 895.0 474.0 L 895.0 476.0 L 896.0 477.0 L 896.0 479.0 L 897.0 480.0 L 897.0 483.0 L 896.0 484.0 L 883.0 484.0 L 882.0 483.0 L 882.0 482.0 L 883.0 481.0 L 883.0 479.0 L 884.0 478.0 L 884.0 475.0 L 885.0 474.0 L 885.0 472.0 L 886.0 471.0 L 886.0 469.0 L 887.0 468.0 L 887.0 466.0 L 888.0 465.0 L 888.0 462.0 Z" />
  <path d="M 716.0 445.0 L 716.0 446.0 L 715.0 447.0 L 715.0 449.0 L 714.0 450.0 L 714.0 452.0 L 713.0 453.0 L 713.0 455.0 L 712.0 456.0 L 712.0 458.0 L 711.0 459.0 L 711.0 462.0 L 710.0 463.0 L 710.0 465.0 L 709.0 466.0 L 709.0 468.0 L 708.0 469.0 L 708.0 471.0 L 707.0 472.0 L 707.0 474.0 L 706.0 475.0 L 706.0 477.0 L 705.0 478.0 L 705.0 480.0 L 704.0 481.0 L 704.0 483.0 L 703.0 484.0 L 703.0 486.0 L 702.0 487.0 L 702.0 489.0 L 701.0 490.0 L 701.0 492.0 L 700.0 493.0 L 700.0 495.0 L 699.0 496.0 L 699.0 498.0 L 698.0 499.0 L 698.0 501.0 L 697.0 502.0 L 697.0 505.0 L 696.0 506.0 L 696.0 507.0 L 708.0 507.0 L 708.0 505.0 L 709.0 504.0 L 709.0 502.0 L 710.0 501.0 L 710.0 498.0 L 711.0 497.0 L 711.0 495.0 L 712.0 494.0 L 733.0 494.0 L 735.0 496.0 L 735.0 498.0 L 736.0 499.0 L 736.0 501.0 L 737.0 502.0 L 737.0 504.0 L 738.0 505.0 L 738.0 507.0 L 751.0 507.0 L 751.0 505.0 L 750.0 504.0 L 750.0 502.0 L 749.0 501.0 L 749.0 499.0 L 748.0 498.0 L 748.0 496.0 L 747.0 495.0 L 747.0 493.0 L 746.0 492.0 L 746.0 490.0 L 745.0 489.0 L 745.0 486.0 L 744.0 485.0 L 744.0 483.0 L 742.0 480.0 L 742.0 478.0 L 741.0 477.0 L 741.0 474.0 L 740.0 473.0 L 740.0 471.0 L 739.0 470.0 L 739.0 468.0 L 738.0 467.0 L 738.0 465.0 L 737.0 464.0 L 737.0 462.0 L 736.0 461.0 L 736.0 459.0 L 735.0 458.0 L 735.0 456.0 L 734.0 455.0 L 734.0 453.0 L 733.0 452.0 L 733.0 450.0 L 732.0 449.0 L 732.0 447.0 L 731.0 446.0 L 731.0 445.0 Z M 723.0 460.0 L 724.0 461.0 L 724.0 464.0 L 725.0 465.0 L 725.0 467.0 L 726.0 468.0 L 726.0 470.0 L 727.0 471.0 L 727.0 473.0 L 728.0 474.0 L 728.0 476.0 L 729.0 477.0 L 729.0 479.0 L 730.0 480.0 L 730.0 483.0 L 729.0 484.0 L 716.0 484.0 L 715.0 483.0 L 715.0 482.0 L 716.0 481.0 L 716.0 479.0 L 717.0 478.0 L 717.0 475.0 L 718.0 474.0 L 718.0 472.0 L 719.0 471.0 L 719.0 469.0 L 720.0 468.0 L 720.0 466.0 L 721.0 465.0 L 721.0 463.0 L 722.0 462.0 L 722.0 461.0 Z" />
  <path d="M 645.0 445.0 L 645.0 456.0 L 671.0 456.0 L 672.0 457.0 L 669.0 461.0 L 669.0 462.0 L 667.0 464.0 L 667.0 465.0 L 664.0 468.0 L 664.0 469.0 L 662.0 471.0 L 662.0 472.0 L 660.0 474.0 L 660.0 475.0 L 657.0 478.0 L 657.0 479.0 L 655.0 481.0 L 655.0 482.0 L 653.0 484.0 L 653.0 485.0 L 651.0 487.0 L 651.0 488.0 L 646.0 494.0 L 646.0 495.0 L 645.0 496.0 L 645.0 507.0 L 689.0 507.0 L 688.0 506.0 L 688.0 496.0 L 661.0 496.0 L 660.0 495.0 L 661.0 494.0 L 661.0 493.0 L 664.0 490.0 L 664.0 489.0 L 666.0 487.0 L 666.0 486.0 L 668.0 484.0 L 668.0 483.0 L 670.0 481.0 L 670.0 480.0 L 673.0 477.0 L 673.0 476.0 L 675.0 474.0 L 675.0 473.0 L 677.0 471.0 L 677.0 470.0 L 679.0 468.0 L 679.0 467.0 L 681.0 465.0 L 681.0 464.0 L 684.0 461.0 L 684.0 460.0 L 688.0 455.0 L 688.0 445.0 Z" />
  <path d="M 585.0 445.0 L 585.0 507.0 L 596.0 507.0 L 596.0 468.0 L 597.0 467.0 L 621.0 507.0 L 634.0 507.0 L 633.0 506.0 L 633.0 446.0 L 634.0 445.0 L 622.0 445.0 L 622.0 481.0 L 621.0 482.0 L 619.0 480.0 L 618.0 477.0 L 613.0 470.0 L 608.0 460.0 L 604.0 455.0 L 599.0 445.0 Z" />
  <path d="M 540.0 445.0 L 540.0 446.0 L 539.0 447.0 L 539.0 449.0 L 538.0 450.0 L 538.0 452.0 L 537.0 453.0 L 537.0 456.0 L 536.0 457.0 L 536.0 459.0 L 535.0 460.0 L 535.0 462.0 L 534.0 463.0 L 534.0 465.0 L 533.0 466.0 L 533.0 468.0 L 532.0 469.0 L 532.0 471.0 L 531.0 472.0 L 531.0 474.0 L 530.0 475.0 L 530.0 477.0 L 529.0 478.0 L 529.0 480.0 L 528.0 481.0 L 528.0 483.0 L 527.0 484.0 L 527.0 486.0 L 526.0 487.0 L 526.0 489.0 L 525.0 490.0 L 525.0 492.0 L 524.0 493.0 L 524.0 495.0 L 523.0 496.0 L 523.0 498.0 L 522.0 499.0 L 522.0 502.0 L 521.0 503.0 L 521.0 505.0 L 520.0 506.0 L 520.0 507.0 L 532.0 507.0 L 532.0 505.0 L 533.0 504.0 L 533.0 501.0 L 534.0 500.0 L 534.0 498.0 L 535.0 497.0 L 535.0 495.0 L 536.0 494.0 L 558.0 494.0 L 559.0 495.0 L 559.0 497.0 L 560.0 498.0 L 560.0 500.0 L 561.0 501.0 L 561.0 503.0 L 562.0 504.0 L 562.0 507.0 L 575.0 507.0 L 575.0 505.0 L 574.0 504.0 L 574.0 502.0 L 573.0 501.0 L 573.0 499.0 L 572.0 498.0 L 572.0 496.0 L 571.0 495.0 L 571.0 493.0 L 570.0 492.0 L 570.0 490.0 L 569.0 489.0 L 569.0 487.0 L 568.0 486.0 L 568.0 483.0 L 567.0 482.0 L 567.0 480.0 L 566.0 479.0 L 566.0 477.0 L 565.0 476.0 L 565.0 474.0 L 564.0 473.0 L 564.0 471.0 L 563.0 470.0 L 563.0 468.0 L 562.0 467.0 L 562.0 465.0 L 561.0 464.0 L 561.0 462.0 L 560.0 461.0 L 560.0 459.0 L 559.0 458.0 L 559.0 456.0 L 558.0 455.0 L 558.0 453.0 L 557.0 452.0 L 557.0 450.0 L 556.0 449.0 L 556.0 447.0 L 555.0 446.0 L 555.0 445.0 Z M 547.0 460.0 L 548.0 461.0 L 548.0 463.0 L 549.0 464.0 L 549.0 466.0 L 550.0 467.0 L 550.0 470.0 L 551.0 471.0 L 551.0 472.0 L 552.0 473.0 L 552.0 476.0 L 553.0 477.0 L 553.0 479.0 L 554.0 480.0 L 554.0 483.0 L 553.0 484.0 L 540.0 484.0 L 539.0 483.0 L 539.0 482.0 L 540.0 481.0 L 540.0 479.0 L 541.0 478.0 L 541.0 476.0 L 542.0 475.0 L 542.0 472.0 L 543.0 471.0 L 543.0 469.0 L 544.0 468.0 L 544.0 466.0 L 545.0 465.0 L 545.0 463.0 L 546.0 462.0 L 546.0 461.0 Z" />
  <path d="M 449.0 445.0 L 449.0 507.0 L 460.0 507.0 L 460.0 466.0 L 461.0 465.0 L 467.0 478.0 L 469.0 485.0 L 472.0 490.0 L 475.0 499.0 L 483.0 499.0 L 497.0 465.0 L 498.0 466.0 L 498.0 507.0 L 510.0 507.0 L 510.0 445.0 L 494.0 445.0 L 493.0 449.0 L 488.0 459.0 L 488.0 461.0 L 486.0 464.0 L 486.0 466.0 L 484.0 469.0 L 484.0 471.0 L 482.0 474.0 L 482.0 476.0 L 479.0 481.0 L 473.0 468.0 L 473.0 466.0 L 471.0 463.0 L 471.0 461.0 L 469.0 458.0 L 465.0 446.0 L 464.0 445.0 Z" />
  <path d="M 404.0 445.0 L 404.0 447.0 L 403.0 448.0 L 403.0 450.0 L 402.0 451.0 L 402.0 453.0 L 401.0 454.0 L 401.0 456.0 L 400.0 457.0 L 400.0 459.0 L 399.0 460.0 L 399.0 463.0 L 398.0 464.0 L 398.0 466.0 L 397.0 467.0 L 397.0 469.0 L 396.0 470.0 L 396.0 472.0 L 395.0 473.0 L 395.0 475.0 L 394.0 476.0 L 394.0 478.0 L 393.0 479.0 L 393.0 481.0 L 392.0 482.0 L 392.0 484.0 L 391.0 485.0 L 391.0 487.0 L 390.0 488.0 L 390.0 490.0 L 389.0 491.0 L 389.0 493.0 L 388.0 494.0 L 388.0 496.0 L 387.0 497.0 L 387.0 499.0 L 386.0 500.0 L 386.0 502.0 L 385.0 503.0 L 385.0 505.0 L 384.0 506.0 L 384.0 507.0 L 396.0 507.0 L 396.0 506.0 L 397.0 505.0 L 397.0 502.0 L 398.0 501.0 L 398.0 499.0 L 399.0 498.0 L 399.0 496.0 L 401.0 494.0 L 422.0 494.0 L 423.0 495.0 L 423.0 497.0 L 424.0 498.0 L 424.0 500.0 L 425.0 501.0 L 425.0 503.0 L 426.0 504.0 L 426.0 506.0 L 427.0 507.0 L 440.0 507.0 L 438.0 504.0 L 438.0 501.0 L 437.0 500.0 L 437.0 498.0 L 436.0 497.0 L 436.0 495.0 L 435.0 494.0 L 435.0 492.0 L 434.0 491.0 L 434.0 489.0 L 433.0 488.0 L 433.0 486.0 L 432.0 485.0 L 432.0 483.0 L 431.0 482.0 L 431.0 480.0 L 430.0 479.0 L 430.0 477.0 L 429.0 476.0 L 429.0 474.0 L 428.0 473.0 L 428.0 471.0 L 427.0 470.0 L 427.0 468.0 L 426.0 467.0 L 426.0 465.0 L 425.0 464.0 L 425.0 462.0 L 424.0 461.0 L 424.0 458.0 L 422.0 455.0 L 422.0 452.0 L 421.0 451.0 L 421.0 449.0 L 420.0 448.0 L 420.0 446.0 L 419.0 445.0 Z M 411.0 460.0 L 412.0 461.0 L 412.0 463.0 L 413.0 464.0 L 413.0 466.0 L 414.0 467.0 L 414.0 469.0 L 415.0 470.0 L 415.0 472.0 L 416.0 473.0 L 416.0 475.0 L 417.0 476.0 L 417.0 478.0 L 418.0 479.0 L 418.0 481.0 L 419.0 482.0 L 417.0 484.0 L 404.0 484.0 L 403.0 483.0 L 403.0 482.0 L 404.0 481.0 L 404.0 480.0 L 405.0 479.0 L 405.0 477.0 L 406.0 476.0 L 406.0 473.0 L 407.0 472.0 L 407.0 470.0 L 408.0 469.0 L 408.0 467.0 L 409.0 466.0 L 409.0 464.0 L 410.0 463.0 L 410.0 461.0 Z" />
  <path d="M 828.0 443.0 L 827.0 444.0 L 825.0 444.0 L 824.0 445.0 L 820.0 446.0 L 818.0 448.0 L 817.0 448.0 L 817.0 449.0 L 814.0 452.0 L 813.0 458.0 L 812.0 459.0 L 812.0 464.0 L 813.0 465.0 L 813.0 468.0 L 818.0 475.0 L 824.0 478.0 L 826.0 478.0 L 827.0 479.0 L 829.0 479.0 L 830.0 480.0 L 836.0 481.0 L 837.0 482.0 L 841.0 483.0 L 845.0 487.0 L 845.0 493.0 L 844.0 495.0 L 840.0 498.0 L 831.0 498.0 L 830.0 497.0 L 828.0 497.0 L 825.0 494.0 L 824.0 489.0 L 812.0 489.0 L 812.0 495.0 L 813.0 496.0 L 814.0 500.0 L 818.0 504.0 L 824.0 507.0 L 826.0 507.0 L 827.0 508.0 L 842.0 508.0 L 843.0 507.0 L 846.0 507.0 L 850.0 505.0 L 852.0 503.0 L 853.0 503.0 L 853.0 502.0 L 856.0 499.0 L 857.0 497.0 L 857.0 494.0 L 858.0 493.0 L 858.0 484.0 L 857.0 483.0 L 857.0 481.0 L 856.0 479.0 L 851.0 474.0 L 845.0 471.0 L 842.0 471.0 L 838.0 469.0 L 835.0 469.0 L 834.0 468.0 L 832.0 468.0 L 828.0 466.0 L 826.0 464.0 L 825.0 458.0 L 829.0 454.0 L 831.0 453.0 L 837.0 453.0 L 842.0 457.0 L 843.0 459.0 L 843.0 462.0 L 856.0 462.0 L 856.0 457.0 L 855.0 456.0 L 854.0 451.0 L 849.0 446.0 L 845.0 445.0 L 844.0 444.0 L 841.0 444.0 L 840.0 443.0 L 830.0 443.0 L 829.0 444.0 Z" />
  <path d="M 769.0 444.0 L 765.0 446.0 L 759.0 452.0 L 759.0 454.0 L 757.0 458.0 L 757.0 463.0 L 758.0 464.0 L 758.0 468.0 L 759.0 470.0 L 765.0 476.0 L 769.0 477.0 L 772.0 479.0 L 775.0 479.0 L 776.0 480.0 L 782.0 481.0 L 785.0 483.0 L 787.0 483.0 L 790.0 487.0 L 790.0 494.0 L 785.0 498.0 L 776.0 498.0 L 771.0 494.0 L 770.0 492.0 L 770.0 489.0 L 757.0 489.0 L 757.0 494.0 L 758.0 495.0 L 758.0 497.0 L 760.0 501.0 L 763.0 504.0 L 769.0 507.0 L 772.0 507.0 L 773.0 508.0 L 788.0 508.0 L 789.0 507.0 L 791.0 507.0 L 795.0 505.0 L 801.0 499.0 L 802.0 495.0 L 803.0 494.0 L 803.0 483.0 L 802.0 482.0 L 802.0 480.0 L 798.0 475.0 L 797.0 475.0 L 793.0 472.0 L 791.0 472.0 L 787.0 470.0 L 784.0 470.0 L 780.0 468.0 L 777.0 468.0 L 773.0 466.0 L 771.0 464.0 L 770.0 459.0 L 774.0 454.0 L 776.0 453.0 L 782.0 453.0 L 783.0 454.0 L 785.0 454.0 L 787.0 456.0 L 788.0 458.0 L 788.0 461.0 L 789.0 462.0 L 801.0 462.0 L 802.0 461.0 L 801.0 460.0 L 801.0 456.0 L 800.0 455.0 L 799.0 451.0 L 794.0 446.0 L 792.0 445.0 L 790.0 445.0 L 786.0 443.0 L 775.0 443.0 L 774.0 444.0 Z" />
  <path d="M 233.0 384.0 L 212.0 388.0 L 188.0 398.0 L 173.0 408.0 L 154.0 427.0 L 145.0 440.0 L 134.0 464.0 L 129.0 487.0 L 129.0 514.0 L 133.0 534.0 L 143.0 558.0 L 157.0 578.0 L 168.0 589.0 L 186.0 602.0 L 212.0 613.0 L 232.0 617.0 L 257.0 617.0 L 288.0 609.0 L 304.0 601.0 L 318.0 591.0 L 334.0 575.0 L 345.0 559.0 L 355.0 536.0 L 359.0 518.0 L 360.0 491.0 L 356.0 469.0 L 348.0 448.0 L 336.0 429.0 L 318.0 410.0 L 304.0 400.0 L 280.0 389.0 L 256.0 384.0 Z M 275.0 603.0 L 276.0 602.0 L 277.0 603.0 L 276.0 604.0 Z M 213.0 603.0 L 214.0 602.0 L 215.0 602.0 L 216.0 603.0 L 215.0 604.0 L 214.0 604.0 Z M 322.0 575.0 L 315.0 582.0 L 314.0 582.0 L 309.0 587.0 L 308.0 587.0 L 306.0 589.0 L 305.0 589.0 L 303.0 591.0 L 302.0 591.0 L 300.0 593.0 L 299.0 593.0 L 298.0 594.0 L 297.0 594.0 L 296.0 595.0 L 295.0 595.0 L 293.0 597.0 L 292.0 597.0 L 291.0 598.0 L 289.0 598.0 L 288.0 599.0 L 287.0 599.0 L 286.0 600.0 L 285.0 600.0 L 284.0 601.0 L 282.0 601.0 L 281.0 602.0 L 280.0 602.0 L 279.0 603.0 L 277.0 603.0 L 276.0 602.0 L 278.0 600.0 L 279.0 600.0 L 286.0 593.0 L 286.0 592.0 L 289.0 589.0 L 289.0 588.0 L 291.0 586.0 L 291.0 585.0 L 293.0 583.0 L 293.0 582.0 L 294.0 581.0 L 294.0 580.0 L 295.0 579.0 L 295.0 578.0 L 296.0 577.0 L 296.0 576.0 L 297.0 575.0 L 297.0 574.0 L 298.0 573.0 L 298.0 572.0 L 299.0 571.0 L 299.0 569.0 L 301.0 567.0 L 304.0 567.0 L 305.0 568.0 L 307.0 568.0 L 308.0 569.0 L 309.0 569.0 L 310.0 570.0 L 312.0 570.0 L 313.0 571.0 L 314.0 571.0 L 315.0 572.0 L 317.0 572.0 L 318.0 573.0 L 319.0 573.0 L 320.0 574.0 L 321.0 574.0 Z M 167.0 575.0 L 168.0 574.0 L 169.0 574.0 L 170.0 573.0 L 172.0 573.0 L 173.0 572.0 L 174.0 572.0 L 175.0 571.0 L 176.0 571.0 L 177.0 570.0 L 179.0 570.0 L 180.0 569.0 L 181.0 569.0 L 182.0 568.0 L 184.0 568.0 L 185.0 567.0 L 187.0 567.0 L 188.0 566.0 L 189.0 566.0 L 190.0 567.0 L 190.0 569.0 L 191.0 570.0 L 191.0 571.0 L 192.0 572.0 L 192.0 573.0 L 193.0 574.0 L 193.0 575.0 L 194.0 576.0 L 194.0 577.0 L 195.0 578.0 L 195.0 579.0 L 197.0 581.0 L 197.0 582.0 L 198.0 583.0 L 198.0 584.0 L 200.0 586.0 L 200.0 587.0 L 203.0 590.0 L 203.0 591.0 L 214.0 602.0 L 213.0 603.0 L 210.0 603.0 L 209.0 602.0 L 207.0 602.0 L 206.0 601.0 L 205.0 601.0 L 204.0 600.0 L 202.0 600.0 L 201.0 599.0 L 200.0 599.0 L 199.0 598.0 L 197.0 598.0 L 195.0 596.0 L 194.0 596.0 L 193.0 595.0 L 192.0 595.0 L 191.0 594.0 L 190.0 594.0 L 188.0 592.0 L 187.0 592.0 L 186.0 591.0 L 185.0 591.0 L 182.0 588.0 L 181.0 588.0 L 178.0 585.0 L 177.0 585.0 Z M 293.0 564.0 L 294.0 565.0 L 294.0 566.0 L 293.0 567.0 L 293.0 569.0 L 292.0 570.0 L 292.0 571.0 L 290.0 573.0 L 290.0 574.0 L 289.0 575.0 L 289.0 576.0 L 288.0 577.0 L 288.0 578.0 L 287.0 579.0 L 287.0 580.0 L 285.0 582.0 L 285.0 583.0 L 282.0 586.0 L 282.0 587.0 L 270.0 599.0 L 269.0 599.0 L 267.0 601.0 L 266.0 601.0 L 264.0 603.0 L 263.0 603.0 L 262.0 604.0 L 261.0 604.0 L 260.0 605.0 L 258.0 605.0 L 257.0 606.0 L 254.0 606.0 L 253.0 607.0 L 249.0 607.0 L 248.0 606.0 L 248.0 558.0 L 249.0 557.0 L 250.0 558.0 L 264.0 558.0 L 265.0 559.0 L 270.0 559.0 L 271.0 560.0 L 275.0 560.0 L 276.0 561.0 L 281.0 561.0 L 282.0 562.0 L 286.0 562.0 L 287.0 563.0 L 289.0 563.0 L 290.0 564.0 Z M 196.0 564.0 L 197.0 563.0 L 201.0 563.0 L 202.0 562.0 L 204.0 562.0 L 205.0 561.0 L 210.0 561.0 L 211.0 560.0 L 215.0 560.0 L 216.0 559.0 L 222.0 559.0 L 223.0 558.0 L 235.0 558.0 L 236.0 557.0 L 240.0 557.0 L 241.0 558.0 L 241.0 606.0 L 240.0 607.0 L 238.0 607.0 L 237.0 606.0 L 234.0 606.0 L 233.0 605.0 L 231.0 605.0 L 230.0 604.0 L 229.0 604.0 L 228.0 603.0 L 227.0 603.0 L 226.0 602.0 L 225.0 602.0 L 222.0 599.0 L 221.0 599.0 L 218.0 596.0 L 217.0 596.0 L 212.0 591.0 L 212.0 590.0 L 208.0 586.0 L 208.0 585.0 L 205.0 582.0 L 205.0 581.0 L 203.0 579.0 L 203.0 578.0 L 201.0 576.0 L 201.0 575.0 L 200.0 574.0 L 200.0 573.0 L 199.0 572.0 L 199.0 571.0 L 198.0 570.0 L 198.0 569.0 L 197.0 568.0 L 197.0 567.0 L 196.0 566.0 Z M 196.0 556.0 L 197.0 555.0 L 198.0 556.0 L 197.0 557.0 Z M 197.0 555.0 L 200.0 551.0 L 200.0 550.0 L 203.0 545.0 L 203.0 543.0 L 206.0 538.0 L 206.0 536.0 L 208.0 533.0 L 208.0 531.0 L 209.0 530.0 L 209.0 529.0 L 210.0 528.0 L 210.0 526.0 L 211.0 525.0 L 278.0 525.0 L 279.0 526.0 L 279.0 528.0 L 282.0 533.0 L 282.0 535.0 L 285.0 540.0 L 285.0 542.0 L 286.0 543.0 L 289.0 550.0 L 291.0 552.0 L 291.0 553.0 L 295.0 557.0 L 294.0 558.0 L 293.0 558.0 L 292.0 557.0 L 289.0 557.0 L 288.0 556.0 L 285.0 556.0 L 284.0 555.0 L 281.0 555.0 L 280.0 554.0 L 276.0 554.0 L 275.0 553.0 L 269.0 553.0 L 268.0 552.0 L 260.0 552.0 L 259.0 551.0 L 249.0 551.0 L 248.0 550.0 L 248.0 531.0 L 247.0 530.0 L 241.0 530.0 L 241.0 550.0 L 240.0 551.0 L 226.0 551.0 L 225.0 552.0 L 217.0 552.0 L 216.0 553.0 L 211.0 553.0 L 210.0 554.0 L 206.0 554.0 L 205.0 555.0 L 202.0 555.0 L 201.0 556.0 L 198.0 556.0 Z M 244.0 445.0 L 245.0 445.0 L 246.0 446.0 L 246.0 448.0 L 247.0 449.0 L 247.0 451.0 L 248.0 452.0 L 248.0 453.0 L 249.0 454.0 L 249.0 455.0 L 250.0 456.0 L 250.0 458.0 L 251.0 459.0 L 251.0 460.0 L 252.0 461.0 L 252.0 463.0 L 253.0 464.0 L 253.0 465.0 L 254.0 466.0 L 254.0 467.0 L 255.0 468.0 L 255.0 470.0 L 256.0 471.0 L 256.0 472.0 L 257.0 473.0 L 257.0 475.0 L 258.0 476.0 L 258.0 477.0 L 259.0 478.0 L 259.0 480.0 L 260.0 481.0 L 260.0 482.0 L 261.0 483.0 L 261.0 485.0 L 262.0 486.0 L 262.0 487.0 L 263.0 488.0 L 263.0 489.0 L 264.0 490.0 L 264.0 492.0 L 265.0 493.0 L 265.0 494.0 L 266.0 495.0 L 266.0 497.0 L 267.0 498.0 L 267.0 499.0 L 268.0 500.0 L 268.0 501.0 L 267.0 502.0 L 222.0 502.0 L 221.0 501.0 L 221.0 500.0 L 222.0 499.0 L 222.0 497.0 L 223.0 496.0 L 223.0 495.0 L 224.0 494.0 L 224.0 493.0 L 225.0 492.0 L 225.0 490.0 L 226.0 489.0 L 226.0 488.0 L 227.0 487.0 L 227.0 485.0 L 228.0 484.0 L 228.0 483.0 L 229.0 482.0 L 229.0 480.0 L 230.0 479.0 L 230.0 478.0 L 231.0 477.0 L 231.0 475.0 L 232.0 474.0 L 232.0 473.0 L 233.0 472.0 L 233.0 470.0 L 234.0 469.0 L 234.0 468.0 L 235.0 467.0 L 235.0 465.0 L 236.0 464.0 L 236.0 463.0 L 237.0 462.0 L 237.0 460.0 L 238.0 459.0 L 238.0 458.0 L 239.0 457.0 L 239.0 455.0 L 240.0 454.0 L 240.0 453.0 L 241.0 452.0 L 241.0 451.0 L 242.0 450.0 L 242.0 448.0 L 243.0 447.0 L 243.0 446.0 Z M 309.0 451.0 L 311.0 451.0 L 312.0 450.0 L 314.0 450.0 L 315.0 449.0 L 316.0 449.0 L 317.0 448.0 L 318.0 448.0 L 319.0 447.0 L 320.0 447.0 L 321.0 446.0 L 322.0 446.0 L 323.0 445.0 L 324.0 445.0 L 325.0 444.0 L 326.0 444.0 L 327.0 443.0 L 328.0 443.0 L 330.0 441.0 L 331.0 441.0 L 332.0 440.0 L 334.0 442.0 L 334.0 443.0 L 336.0 445.0 L 336.0 446.0 L 337.0 447.0 L 337.0 448.0 L 339.0 450.0 L 339.0 452.0 L 340.0 453.0 L 340.0 454.0 L 341.0 455.0 L 341.0 456.0 L 342.0 457.0 L 342.0 458.0 L 343.0 459.0 L 343.0 461.0 L 344.0 462.0 L 344.0 463.0 L 345.0 464.0 L 345.0 466.0 L 346.0 467.0 L 346.0 470.0 L 347.0 471.0 L 347.0 473.0 L 348.0 474.0 L 348.0 478.0 L 349.0 479.0 L 349.0 484.0 L 350.0 485.0 L 350.0 492.0 L 351.0 493.0 L 351.0 497.0 L 350.0 498.0 L 316.0 498.0 L 315.0 497.0 L 315.0 489.0 L 314.0 488.0 L 314.0 479.0 L 313.0 478.0 L 313.0 472.0 L 312.0 471.0 L 312.0 466.0 L 311.0 465.0 L 311.0 461.0 L 310.0 460.0 L 310.0 458.0 L 309.0 457.0 L 309.0 454.0 L 308.0 453.0 L 308.0 452.0 Z M 181.0 451.0 L 182.0 452.0 L 182.0 454.0 L 181.0 455.0 L 181.0 457.0 L 180.0 458.0 L 180.0 461.0 L 179.0 462.0 L 179.0 465.0 L 178.0 466.0 L 178.0 471.0 L 177.0 472.0 L 177.0 478.0 L 176.0 479.0 L 176.0 488.0 L 175.0 489.0 L 175.0 490.0 L 176.0 491.0 L 175.0 492.0 L 175.0 498.0 L 174.0 499.0 L 138.0 499.0 L 137.0 498.0 L 137.0 495.0 L 138.0 494.0 L 138.0 485.0 L 139.0 484.0 L 139.0 480.0 L 140.0 479.0 L 140.0 476.0 L 141.0 475.0 L 141.0 472.0 L 142.0 471.0 L 142.0 468.0 L 143.0 467.0 L 143.0 465.0 L 145.0 462.0 L 145.0 460.0 L 146.0 459.0 L 146.0 458.0 L 148.0 455.0 L 148.0 453.0 L 149.0 452.0 L 149.0 451.0 L 151.0 449.0 L 151.0 448.0 L 152.0 447.0 L 152.0 446.0 L 153.0 445.0 L 153.0 444.0 L 155.0 442.0 L 155.0 441.0 L 157.0 439.0 L 159.0 441.0 L 160.0 441.0 L 161.0 442.0 L 162.0 442.0 L 163.0 443.0 L 164.0 443.0 L 166.0 445.0 L 167.0 445.0 L 168.0 446.0 L 170.0 446.0 L 171.0 447.0 L 172.0 447.0 L 175.0 449.0 L 177.0 449.0 L 178.0 450.0 L 179.0 450.0 L 180.0 451.0 Z M 279.0 400.0 L 280.0 399.0 L 281.0 400.0 L 282.0 400.0 L 283.0 401.0 L 286.0 401.0 L 287.0 402.0 L 288.0 402.0 L 289.0 403.0 L 290.0 403.0 L 291.0 404.0 L 292.0 404.0 L 293.0 405.0 L 294.0 405.0 L 295.0 406.0 L 296.0 406.0 L 297.0 407.0 L 298.0 407.0 L 300.0 409.0 L 301.0 409.0 L 303.0 411.0 L 304.0 411.0 L 306.0 413.0 L 307.0 413.0 L 310.0 416.0 L 311.0 416.0 L 327.0 432.0 L 327.0 433.0 L 328.0 434.0 L 325.0 437.0 L 324.0 437.0 L 323.0 438.0 L 322.0 438.0 L 321.0 439.0 L 320.0 439.0 L 319.0 440.0 L 318.0 440.0 L 317.0 441.0 L 316.0 441.0 L 315.0 442.0 L 314.0 442.0 L 313.0 443.0 L 312.0 443.0 L 311.0 444.0 L 310.0 444.0 L 309.0 445.0 L 306.0 445.0 L 305.0 444.0 L 305.0 442.0 L 304.0 441.0 L 304.0 439.0 L 303.0 438.0 L 303.0 436.0 L 302.0 435.0 L 302.0 434.0 L 301.0 433.0 L 301.0 432.0 L 300.0 431.0 L 300.0 429.0 L 299.0 428.0 L 299.0 427.0 L 298.0 426.0 L 298.0 425.0 L 297.0 424.0 L 297.0 423.0 L 295.0 421.0 L 295.0 420.0 L 294.0 419.0 L 294.0 418.0 L 292.0 416.0 L 292.0 415.0 L 289.0 412.0 L 289.0 411.0 L 286.0 408.0 L 286.0 407.0 L 281.0 402.0 L 280.0 402.0 L 279.0 401.0 Z M 214.0 399.0 L 213.0 400.0 L 212.0 400.0 L 205.0 407.0 L 205.0 408.0 L 201.0 412.0 L 201.0 413.0 L 199.0 415.0 L 199.0 416.0 L 197.0 418.0 L 197.0 419.0 L 195.0 421.0 L 195.0 422.0 L 194.0 423.0 L 194.0 424.0 L 193.0 425.0 L 193.0 426.0 L 192.0 427.0 L 192.0 428.0 L 191.0 429.0 L 191.0 430.0 L 190.0 431.0 L 190.0 432.0 L 189.0 433.0 L 189.0 434.0 L 188.0 435.0 L 188.0 437.0 L 187.0 438.0 L 187.0 439.0 L 186.0 440.0 L 186.0 442.0 L 185.0 443.0 L 185.0 444.0 L 184.0 445.0 L 183.0 445.0 L 182.0 444.0 L 180.0 444.0 L 179.0 443.0 L 178.0 443.0 L 177.0 442.0 L 175.0 442.0 L 174.0 441.0 L 173.0 441.0 L 172.0 440.0 L 171.0 440.0 L 170.0 439.0 L 169.0 439.0 L 168.0 438.0 L 167.0 438.0 L 165.0 436.0 L 164.0 436.0 L 163.0 435.0 L 162.0 435.0 L 161.0 434.0 L 161.0 433.0 L 165.0 429.0 L 165.0 428.0 L 175.0 418.0 L 176.0 418.0 L 180.0 414.0 L 181.0 414.0 L 183.0 412.0 L 184.0 412.0 L 187.0 409.0 L 188.0 409.0 L 189.0 408.0 L 190.0 408.0 L 192.0 406.0 L 193.0 406.0 L 194.0 405.0 L 195.0 405.0 L 196.0 404.0 L 197.0 404.0 L 198.0 403.0 L 199.0 403.0 L 200.0 402.0 L 202.0 402.0 L 203.0 401.0 L 204.0 401.0 L 205.0 400.0 L 207.0 400.0 L 208.0 399.0 L 210.0 399.0 L 211.0 398.0 L 213.0 398.0 Z M 251.0 394.0 L 265.0 398.0 L 272.0 403.0 L 286.0 418.0 L 296.0 436.0 L 300.0 447.0 L 298.0 449.0 L 278.0 454.0 L 281.0 460.0 L 294.0 457.0 L 301.0 454.0 L 302.0 455.0 L 307.0 477.0 L 307.0 487.0 L 309.0 499.0 L 308.0 500.0 L 307.0 519.0 L 309.0 521.0 L 312.0 528.0 L 314.0 517.0 L 314.0 506.0 L 315.0 505.0 L 350.0 505.0 L 351.0 506.0 L 350.0 518.0 L 345.0 538.0 L 337.0 555.0 L 328.0 567.0 L 316.0 552.0 L 289.0 493.0 L 286.0 484.0 L 280.0 473.0 L 277.0 464.0 L 270.0 451.0 L 248.0 401.0 L 248.0 396.0 Z M 241.0 394.0 L 242.0 395.0 L 241.0 399.0 L 188.0 517.0 L 185.0 526.0 L 183.0 528.0 L 177.0 544.0 L 169.0 558.0 L 160.0 567.0 L 150.0 552.0 L 145.0 541.0 L 139.0 522.0 L 137.0 506.0 L 138.0 505.0 L 174.0 505.0 L 176.0 510.0 L 176.0 517.0 L 178.0 526.0 L 183.0 516.0 L 182.0 515.0 L 183.0 513.0 L 182.0 512.0 L 182.0 485.0 L 183.0 484.0 L 184.0 470.0 L 188.0 455.0 L 192.0 454.0 L 200.0 457.0 L 209.0 458.0 L 211.0 453.0 L 191.0 447.0 L 196.0 433.0 L 208.0 414.0 L 219.0 403.0 L 231.0 396.0 Z" />
</g>
</svg>